<?xml version="1.0" encoding="UTF-8" standalone="no"?>
<!DOCTYPE svg PUBLIC "-//W3C//DTD SVG 1.1//EN"
 "http://www.w3.org/Graphics/SVG/1.1/DTD/svg11.dtd">
<!-- Generated by graphviz version 3.0.0 (20220226.1711)
 -->
<!-- Title: dependencies Pages: 1 -->
<svg width="364pt" height="247pt"
 viewBox="0.00 0.00 364.00 246.80" xmlns="http://www.w3.org/2000/svg" xmlns:xlink="http://www.w3.org/1999/xlink">
<g id="graph0" class="graph" transform="scale(1 1) rotate(0) translate(4 242.8)">
<title>dependencies</title>
<polygon fill="white" stroke="transparent" points="-4,4 -4,-242.8 360,-242.8 360,4 -4,4"/>
<text text-anchor="middle" x="178" y="-8.2" font-family="sans-serif" font-size="14.00">dependencies</text>
<g id="clust1" class="cluster">
<title>cluster_IntersectionModule</title>
<polygon fill="none" stroke="black" stroke-dasharray="1,5" points="8,-32.8 8,-230.8 348,-230.8 348,-32.8 8,-32.8"/>
</g>
<g id="clust6" class="cluster">
<title>cluster_IntersectionModule_providers</title>
<polygon fill="none" stroke="black" points="152,-40.8 152,-92.8 340,-92.8 340,-40.8 152,-40.8"/>
</g>
<g id="clust4" class="cluster">
<title>cluster_IntersectionModule_exports</title>
<polygon fill="none" stroke="black" points="95,-170.8 95,-222.8 239,-222.8 239,-170.8 95,-170.8"/>
</g>
<g id="clust3" class="cluster">
<title>cluster_IntersectionModule_imports</title>
<polygon fill="none" stroke="black" points="16,-40.8 16,-92.8 144,-92.8 144,-40.8 16,-40.8"/>
</g>
<!-- CommonModule -->
<g id="node1" class="node">
<title>CommonModule</title>
<polygon fill="#8dd3c7" stroke="black" points="135.67,-84.8 132.67,-88.8 111.67,-88.8 108.67,-84.8 24.33,-84.8 24.33,-48.8 135.67,-48.8 135.67,-84.8"/>
<text text-anchor="middle" x="80" y="-62.6" font-family="Times,serif" font-size="14.00">CommonModule</text>
</g>
<!-- IntersectionModule -->
<g id="node2" class="node">
<title>IntersectionModule</title>
<polygon fill="#8dd3c7" stroke="black" points="229.64,-149.8 226.64,-153.8 205.64,-153.8 202.64,-149.8 104.36,-149.8 104.36,-113.8 229.64,-113.8 229.64,-149.8"/>
<text text-anchor="middle" x="167" y="-127.6" font-family="Times,serif" font-size="14.00">IntersectionModule</text>
</g>
<!-- CommonModule&#45;&gt;IntersectionModule -->
<g id="edge1" class="edge">
<title>CommonModule&#45;&gt;IntersectionModule</title>
<path fill="none" stroke="black" d="M120.01,-84.91C120.01,-84.91 120.01,-103.79 120.01,-103.79"/>
<polygon fill="black" stroke="black" points="116.51,-103.79 120.01,-113.79 123.51,-103.79 116.51,-103.79"/>
</g>
<!-- IntersectionService  -->
<g id="node3" class="node">
<title>IntersectionService </title>
<polygon fill="#fb8072" stroke="black" points="230.56,-214.8 103.44,-214.8 103.44,-178.8 230.56,-178.8 230.56,-214.8"/>
<text text-anchor="middle" x="167" y="-192.6" font-family="Times,serif" font-size="14.00">IntersectionService </text>
</g>
<!-- IntersectionModule&#45;&gt;IntersectionService  -->
<g id="edge2" class="edge">
<title>IntersectionModule&#45;&gt;IntersectionService </title>
<path fill="none" stroke="black" stroke-dasharray="5,2" d="M167,-149.91C167,-149.91 167,-168.79 167,-168.79"/>
<polygon fill="black" stroke="black" points="163.5,-168.79 167,-178.79 170.5,-168.79 163.5,-168.79"/>
</g>
<!-- IntersectionService -->
<g id="node4" class="node">
<title>IntersectionService</title>
<ellipse fill="#fdb462" stroke="black" cx="246" cy="-66.8" rx="85.65" ry="18"/>
<text text-anchor="middle" x="246" y="-62.6" font-family="Times,serif" font-size="14.00">IntersectionService</text>
</g>
<!-- IntersectionService&#45;&gt;IntersectionModule -->
<g id="edge3" class="edge">
<title>IntersectionService&#45;&gt;IntersectionModule</title>
<path fill="none" stroke="black" d="M195.12,-81.55C195.12,-81.55 195.12,-103.39 195.12,-103.39"/>
<polygon fill="black" stroke="black" points="191.62,-103.39 195.12,-113.39 198.62,-103.39 191.62,-103.39"/>
</g>
</g>
</svg>
