<?xml version="1.0" encoding="UTF-8" standalone="no"?>
<!DOCTYPE svg PUBLIC "-//W3C//DTD SVG 1.1//EN"
 "http://www.w3.org/Graphics/SVG/1.1/DTD/svg11.dtd">
<!-- Generated by graphviz version 3.0.0 (20220226.1711)
 -->
<!-- Title: dependencies Pages: 1 -->
<svg width="916pt" height="261pt"
 viewBox="0.00 0.00 916.00 260.80" xmlns="http://www.w3.org/2000/svg" xmlns:xlink="http://www.w3.org/1999/xlink">
<g id="graph0" class="graph" transform="scale(1 1) rotate(0) translate(4 256.8)">
<title>dependencies</title>
<polygon fill="white" stroke="transparent" points="-4,4 -4,-256.8 912,-256.8 912,4 -4,4"/>
<text text-anchor="middle" x="454" y="-8.2" font-family="sans-serif" font-size="14.00">dependencies</text>
<g id="clust1" class="cluster">
<title>cluster_AppModule</title>
<polygon fill="none" stroke="black" stroke-dasharray="1,5" points="8,-32.8 8,-160.8 152,-160.8 152,-32.8 8,-32.8"/>
</g>
<g id="clust3" class="cluster">
<title>cluster_AppModule_imports</title>
<polygon fill="none" stroke="black" points="16,-40.8 16,-92.8 144,-92.8 144,-40.8 16,-40.8"/>
</g>
<g id="clust7" class="cluster">
<title>cluster_CommonModule</title>
<polygon fill="none" stroke="black" stroke-dasharray="1,5" points="160,-100.8 160,-168.8 736,-168.8 736,-100.8 160,-100.8"/>
</g>
<g id="clust9" class="cluster">
<title>cluster_CommonModule_imports</title>
<polygon fill="none" stroke="black" points="456,-108.8 456,-160.8 728,-160.8 728,-108.8 456,-108.8"/>
</g>
<g id="clust10" class="cluster">
<title>cluster_CommonModule_exports</title>
<polygon fill="none" stroke="black" points="168,-108.8 168,-160.8 448,-160.8 448,-108.8 168,-108.8"/>
</g>
<g id="clust13" class="cluster">
<title>cluster_HttpResponseModule</title>
<polygon fill="none" stroke="black" stroke-dasharray="1,5" points="214,-176.8 214,-244.8 598,-244.8 598,-176.8 214,-176.8"/>
</g>
<g id="clust16" class="cluster">
<title>cluster_HttpResponseModule_exports</title>
<polygon fill="none" stroke="black" points="434,-184.8 434,-236.8 590,-236.8 590,-184.8 434,-184.8"/>
</g>
<g id="clust18" class="cluster">
<title>cluster_HttpResponseModule_providers</title>
<polygon fill="none" stroke="black" points="222,-184.8 222,-236.8 426,-236.8 426,-184.8 222,-184.8"/>
</g>
<g id="clust19" class="cluster">
<title>cluster_LoggerModule</title>
<polygon fill="none" stroke="black" stroke-dasharray="1,5" points="606,-176.8 606,-244.8 900,-244.8 900,-176.8 606,-176.8"/>
</g>
<g id="clust22" class="cluster">
<title>cluster_LoggerModule_exports</title>
<polygon fill="none" stroke="black" points="774,-184.8 774,-236.8 892,-236.8 892,-184.8 774,-184.8"/>
</g>
<g id="clust24" class="cluster">
<title>cluster_LoggerModule_providers</title>
<polygon fill="none" stroke="black" points="614,-184.8 614,-236.8 766,-236.8 766,-184.8 614,-184.8"/>
</g>
<!-- CommonModule -->
<g id="node1" class="node">
<title>CommonModule</title>
<polygon fill="#8dd3c7" stroke="black" points="135.67,-84.8 132.67,-88.8 111.67,-88.8 108.67,-84.8 24.33,-84.8 24.33,-48.8 135.67,-48.8 135.67,-84.8"/>
<text text-anchor="middle" x="80" y="-62.6" font-family="Times,serif" font-size="14.00">CommonModule</text>
</g>
<!-- AppModule -->
<g id="node2" class="node">
<title>AppModule</title>
<polygon fill="#8dd3c7" stroke="black" points="121.66,-152.8 118.66,-156.8 97.66,-156.8 94.66,-152.8 38.34,-152.8 38.34,-116.8 121.66,-116.8 121.66,-152.8"/>
<text text-anchor="middle" x="80" y="-130.6" font-family="Times,serif" font-size="14.00">AppModule</text>
</g>
<!-- CommonModule&#45;&gt;AppModule -->
<g id="edge1" class="edge">
<title>CommonModule&#45;&gt;AppModule</title>
<path fill="none" stroke="black" d="M80,-85.02C80,-85.02 80,-106.53 80,-106.53"/>
<polygon fill="black" stroke="black" points="76.5,-106.53 80,-116.53 83.5,-106.53 76.5,-106.53"/>
</g>
<!-- HttpResponseModule  -->
<g id="node5" class="node">
<title>HttpResponseModule </title>
<polygon fill="#fb8072" stroke="black" points="439.6,-152.8 298.4,-152.8 298.4,-116.8 439.6,-116.8 439.6,-152.8"/>
<text text-anchor="middle" x="369" y="-130.6" font-family="Times,serif" font-size="14.00">HttpResponseModule </text>
</g>
<!-- CommonModule&#45;&gt;HttpResponseModule  -->
<g id="edge4" class="edge">
<title>CommonModule&#45;&gt;HttpResponseModule </title>
<path fill="none" stroke="black" stroke-dasharray="5,2" d="M135.72,-75.8C219.7,-75.8 369,-75.8 369,-75.8 369,-75.8 369,-106.78 369,-106.78"/>
<polygon fill="black" stroke="black" points="365.5,-106.78 369,-116.78 372.5,-106.78 365.5,-106.78"/>
</g>
<!-- LoggerModule  -->
<g id="node6" class="node">
<title>LoggerModule </title>
<polygon fill="#fb8072" stroke="black" points="279.98,-152.8 176.02,-152.8 176.02,-116.8 279.98,-116.8 279.98,-152.8"/>
<text text-anchor="middle" x="228" y="-130.6" font-family="Times,serif" font-size="14.00">LoggerModule </text>
</g>
<!-- CommonModule&#45;&gt;LoggerModule  -->
<g id="edge5" class="edge">
<title>CommonModule&#45;&gt;LoggerModule </title>
<path fill="none" stroke="black" stroke-dasharray="5,2" d="M128.83,-85.02C128.83,-105.17 128.83,-134.8 128.83,-134.8 128.83,-134.8 166.09,-134.8 166.09,-134.8"/>
<polygon fill="black" stroke="black" points="166.09,-138.3 176.09,-134.8 166.09,-131.3 166.09,-138.3"/>
</g>
<!-- HttpResponseModule -->
<g id="node3" class="node">
<title>HttpResponseModule</title>
<polygon fill="#8dd3c7" stroke="black" points="602.1,-152.8 599.1,-156.8 578.1,-156.8 575.1,-152.8 463.9,-152.8 463.9,-116.8 602.1,-116.8 602.1,-152.8"/>
<text text-anchor="middle" x="533" y="-130.6" font-family="Times,serif" font-size="14.00">HttpResponseModule</text>
</g>
<!-- HttpResponseModule&#45;&gt;CommonModule -->
<g id="edge2" class="edge">
<title>HttpResponseModule&#45;&gt;CommonModule</title>
<path fill="none" stroke="black" d="M533,-116.58C533,-96.43 533,-66.8 533,-66.8 533,-66.8 146,-66.8 146,-66.8"/>
<polygon fill="black" stroke="black" points="146,-63.3 136,-66.8 146,-70.3 146,-63.3"/>
</g>
<!-- HttpResponseService  -->
<g id="node7" class="node">
<title>HttpResponseService </title>
<polygon fill="#fb8072" stroke="black" points="582.03,-228.8 441.97,-228.8 441.97,-192.8 582.03,-192.8 582.03,-228.8"/>
<text text-anchor="middle" x="512" y="-206.6" font-family="Times,serif" font-size="14.00">HttpResponseService </text>
</g>
<!-- HttpResponseModule&#45;&gt;HttpResponseService  -->
<g id="edge6" class="edge">
<title>HttpResponseModule&#45;&gt;HttpResponseService </title>
<path fill="none" stroke="black" stroke-dasharray="5,2" d="M542.66,-152.81C542.66,-152.81 542.66,-182.65 542.66,-182.65"/>
<polygon fill="black" stroke="black" points="539.16,-182.65 542.66,-192.65 546.16,-182.65 539.16,-182.65"/>
</g>
<!-- LoggerModule -->
<g id="node4" class="node">
<title>LoggerModule</title>
<polygon fill="#8dd3c7" stroke="black" points="719.98,-152.8 716.98,-156.8 695.98,-156.8 692.98,-152.8 620.02,-152.8 620.02,-116.8 719.98,-116.8 719.98,-152.8"/>
<text text-anchor="middle" x="670" y="-130.6" font-family="Times,serif" font-size="14.00">LoggerModule</text>
</g>
<!-- LoggerModule&#45;&gt;CommonModule -->
<g id="edge3" class="edge">
<title>LoggerModule&#45;&gt;CommonModule</title>
<path fill="none" stroke="black" d="M670,-116.55C670,-93.78 670,-57.8 670,-57.8 670,-57.8 145.77,-57.8 145.77,-57.8"/>
<polygon fill="black" stroke="black" points="145.77,-54.3 135.77,-57.8 145.77,-61.3 145.77,-54.3"/>
</g>
<!-- LoggerService  -->
<g id="node9" class="node">
<title>LoggerService </title>
<polygon fill="#fb8072" stroke="black" points="883.91,-228.8 782.09,-228.8 782.09,-192.8 883.91,-192.8 883.91,-228.8"/>
<text text-anchor="middle" x="833" y="-206.6" font-family="Times,serif" font-size="14.00">LoggerService </text>
</g>
<!-- LoggerModule&#45;&gt;LoggerService  -->
<g id="edge8" class="edge">
<title>LoggerModule&#45;&gt;LoggerService </title>
<path fill="none" stroke="black" stroke-dasharray="5,2" d="M720.24,-134.8C768.13,-134.8 833,-134.8 833,-134.8 833,-134.8 833,-182.79 833,-182.79"/>
<polygon fill="black" stroke="black" points="829.5,-182.79 833,-192.79 836.5,-182.79 829.5,-182.79"/>
</g>
<!-- HttpResponseService -->
<g id="node8" class="node">
<title>HttpResponseService</title>
<ellipse fill="#fdb462" stroke="black" cx="324" cy="-210.8" rx="94.35" ry="18"/>
<text text-anchor="middle" x="324" y="-206.6" font-family="Times,serif" font-size="14.00">HttpResponseService</text>
</g>
<!-- HttpResponseService&#45;&gt;HttpResponseModule -->
<g id="edge7" class="edge">
<title>HttpResponseService&#45;&gt;HttpResponseModule</title>
<path fill="none" stroke="black" d="M358.19,-194.02C358.19,-183.84 358.19,-172.8 358.19,-172.8 358.19,-172.8 503.3,-172.8 503.3,-172.8 503.3,-172.8 503.3,-162.91 503.3,-162.91"/>
<polygon fill="black" stroke="black" points="506.8,-162.91 503.3,-152.91 499.8,-162.91 506.8,-162.91"/>
</g>
<!-- LoggerService -->
<g id="node10" class="node">
<title>LoggerService</title>
<ellipse fill="#fdb462" stroke="black" cx="690" cy="-210.8" rx="67.76" ry="18"/>
<text text-anchor="middle" x="690" y="-206.6" font-family="Times,serif" font-size="14.00">LoggerService</text>
</g>
<!-- LoggerService&#45;&gt;LoggerModule -->
<g id="edge9" class="edge">
<title>LoggerService&#45;&gt;LoggerModule</title>
<path fill="none" stroke="black" d="M671.06,-193.17C671.06,-193.17 671.06,-162.86 671.06,-162.86"/>
<polygon fill="black" stroke="black" points="674.56,-162.86 671.06,-152.86 667.56,-162.86 674.56,-162.86"/>
</g>
</g>
</svg>
