<?xml version="1.0" encoding="UTF-8" standalone="no"?>
<!DOCTYPE svg PUBLIC "-//W3C//DTD SVG 1.1//EN"
 "http://www.w3.org/Graphics/SVG/1.1/DTD/svg11.dtd">
<!-- Generated by graphviz version 3.0.0 (20220226.1711)
 -->
<!-- Title: dependencies Pages: 1 -->
<svg width="1004pt" height="391pt"
 viewBox="0.00 0.00 1004.00 390.80" xmlns="http://www.w3.org/2000/svg" xmlns:xlink="http://www.w3.org/1999/xlink">
<g id="graph0" class="graph" transform="scale(1 1) rotate(0) translate(4 386.8)">
<title>dependencies</title>
<polygon fill="white" stroke="transparent" points="-4,4 -4,-386.8 1000,-386.8 1000,4 -4,4"/>
<text text-anchor="middle" x="498" y="-8.2" font-family="sans-serif" font-size="14.00">dependencies</text>
<g id="clust19" class="cluster">
<title>cluster_HttpResponseModule</title>
<polygon fill="none" stroke="black" stroke-dasharray="1,5" points="8,-32.8 8,-230.8 228,-230.8 228,-32.8 8,-32.8"/>
</g>
<g id="clust22" class="cluster">
<title>cluster_HttpResponseModule_exports</title>
<polygon fill="none" stroke="black" points="52,-170.8 52,-222.8 208,-222.8 208,-170.8 52,-170.8"/>
</g>
<g id="clust24" class="cluster">
<title>cluster_HttpResponseModule_providers</title>
<polygon fill="none" stroke="black" points="16,-40.8 16,-92.8 220,-92.8 220,-40.8 16,-40.8"/>
</g>
<g id="clust31" class="cluster">
<title>cluster_LoggerModule</title>
<polygon fill="none" stroke="black" stroke-dasharray="1,5" points="584,-32.8 584,-230.8 752,-230.8 752,-32.8 584,-32.8"/>
</g>
<g id="clust34" class="cluster">
<title>cluster_LoggerModule_exports</title>
<polygon fill="none" stroke="black" points="600,-170.8 600,-222.8 718,-222.8 718,-170.8 600,-170.8"/>
</g>
<g id="clust36" class="cluster">
<title>cluster_LoggerModule_providers</title>
<polygon fill="none" stroke="black" points="592,-40.8 592,-92.8 744,-92.8 744,-40.8 592,-40.8"/>
</g>
<g id="clust25" class="cluster">
<title>cluster_IntersectionModule</title>
<polygon fill="none" stroke="black" stroke-dasharray="1,5" points="236,-162.8 236,-374.8 576,-374.8 576,-162.8 236,-162.8"/>
</g>
<g id="clust27" class="cluster">
<title>cluster_IntersectionModule_imports</title>
<polygon fill="none" stroke="black" points="440,-170.8 440,-222.8 568,-222.8 568,-170.8 440,-170.8"/>
</g>
<g id="clust28" class="cluster">
<title>cluster_IntersectionModule_exports</title>
<polygon fill="none" stroke="black" points="345,-314.8 345,-366.8 489,-366.8 489,-314.8 345,-314.8"/>
</g>
<g id="clust30" class="cluster">
<title>cluster_IntersectionModule_providers</title>
<polygon fill="none" stroke="black" points="244,-170.8 244,-222.8 432,-222.8 432,-170.8 244,-170.8"/>
</g>
<g id="clust1" class="cluster">
<title>cluster_AppModule</title>
<polygon fill="none" stroke="black" stroke-dasharray="1,5" points="584,-246.8 584,-298.8 684,-298.8 684,-246.8 584,-246.8"/>
</g>
<g id="clust7" class="cluster">
<title>cluster_CommonModule</title>
<polygon fill="none" stroke="black" stroke-dasharray="1,5" points="692,-238.8 692,-306.8 988,-306.8 988,-238.8 692,-238.8"/>
</g>
<g id="clust10" class="cluster">
<title>cluster_CommonModule_exports</title>
<polygon fill="none" stroke="black" points="700,-246.8 700,-298.8 980,-298.8 980,-246.8 700,-246.8"/>
</g>
<!-- CommonModule -->
<g id="node1" class="node">
<title>CommonModule</title>
<polygon fill="#8dd3c7" stroke="black" points="559.67,-214.8 556.67,-218.8 535.67,-218.8 532.67,-214.8 448.33,-214.8 448.33,-178.8 559.67,-178.8 559.67,-214.8"/>
<text text-anchor="middle" x="504" y="-192.6" font-family="Times,serif" font-size="14.00">CommonModule</text>
</g>
<!-- AppModule -->
<g id="node2" class="node">
<title>AppModule</title>
<polygon fill="#8dd3c7" stroke="black" points="675.66,-290.8 672.66,-294.8 651.66,-294.8 648.66,-290.8 592.34,-290.8 592.34,-254.8 675.66,-254.8 675.66,-290.8"/>
<text text-anchor="middle" x="634" y="-268.6" font-family="Times,serif" font-size="14.00">AppModule</text>
</g>
<!-- CommonModule&#45;&gt;AppModule -->
<g id="edge1" class="edge">
<title>CommonModule&#45;&gt;AppModule</title>
<path fill="none" stroke="black" d="M559.73,-196.8C579.13,-196.8 596.14,-196.8 596.14,-196.8 596.14,-196.8 596.14,-244.79 596.14,-244.79"/>
<polygon fill="black" stroke="black" points="592.64,-244.79 596.14,-254.79 599.64,-244.79 592.64,-244.79"/>
</g>
<!-- HttpResponseModule  -->
<g id="node5" class="node">
<title>HttpResponseModule </title>
<polygon fill="#fb8072" stroke="black" points="971.6,-290.8 830.4,-290.8 830.4,-254.8 971.6,-254.8 971.6,-290.8"/>
<text text-anchor="middle" x="901" y="-268.6" font-family="Times,serif" font-size="14.00">HttpResponseModule </text>
</g>
<!-- CommonModule&#45;&gt;HttpResponseModule  -->
<g id="edge4" class="edge">
<title>CommonModule&#45;&gt;HttpResponseModule </title>
<path fill="none" stroke="black" stroke-dasharray="5,2" d="M533.48,-215.04C533.48,-222.23 533.48,-228.8 533.48,-228.8 533.48,-228.8 901,-228.8 901,-228.8 901,-228.8 901,-244.65 901,-244.65"/>
<polygon fill="black" stroke="black" points="897.5,-244.65 901,-254.65 904.5,-244.65 897.5,-244.65"/>
</g>
<!-- LoggerModule  -->
<g id="node6" class="node">
<title>LoggerModule </title>
<polygon fill="#fb8072" stroke="black" points="811.98,-290.8 708.02,-290.8 708.02,-254.8 811.98,-254.8 811.98,-290.8"/>
<text text-anchor="middle" x="760" y="-268.6" font-family="Times,serif" font-size="14.00">LoggerModule </text>
</g>
<!-- CommonModule&#45;&gt;LoggerModule  -->
<g id="edge5" class="edge">
<title>CommonModule&#45;&gt;LoggerModule </title>
<path fill="none" stroke="black" stroke-dasharray="5,2" d="M507.13,-214.84C507.13,-227.36 507.13,-241.8 507.13,-241.8 507.13,-241.8 722.92,-241.8 722.92,-241.8 722.92,-241.8 722.92,-244.77 722.92,-244.77"/>
<polygon fill="black" stroke="black" points="719.42,-244.77 722.92,-254.77 726.42,-244.77 719.42,-244.77"/>
</g>
<!-- IntersectionModule -->
<g id="node9" class="node">
<title>IntersectionModule</title>
<polygon fill="#8dd3c7" stroke="black" points="479.64,-290.8 476.64,-294.8 455.64,-294.8 452.64,-290.8 354.36,-290.8 354.36,-254.8 479.64,-254.8 479.64,-290.8"/>
<text text-anchor="middle" x="417" y="-268.6" font-family="Times,serif" font-size="14.00">IntersectionModule</text>
</g>
<!-- CommonModule&#45;&gt;IntersectionModule -->
<g id="edge8" class="edge">
<title>CommonModule&#45;&gt;IntersectionModule</title>
<path fill="none" stroke="black" d="M463.99,-214.81C463.99,-214.81 463.99,-244.65 463.99,-244.65"/>
<polygon fill="black" stroke="black" points="460.49,-244.65 463.99,-254.65 467.49,-244.65 460.49,-244.65"/>
</g>
<!-- HttpResponseModule -->
<g id="node3" class="node">
<title>HttpResponseModule</title>
<polygon fill="#8dd3c7" stroke="black" points="199.1,-149.8 196.1,-153.8 175.1,-153.8 172.1,-149.8 60.9,-149.8 60.9,-113.8 199.1,-113.8 199.1,-149.8"/>
<text text-anchor="middle" x="130" y="-127.6" font-family="Times,serif" font-size="14.00">HttpResponseModule</text>
</g>
<!-- HttpResponseModule&#45;&gt;CommonModule -->
<g id="edge2" class="edge">
<title>HttpResponseModule&#45;&gt;CommonModule</title>
<path fill="none" stroke="black" d="M199.37,-125.8C302.79,-125.8 485.39,-125.8 485.39,-125.8 485.39,-125.8 485.39,-168.52 485.39,-168.52"/>
<polygon fill="black" stroke="black" points="481.89,-168.52 485.39,-178.52 488.89,-168.52 481.89,-168.52"/>
</g>
<!-- HttpResponseService  -->
<g id="node7" class="node">
<title>HttpResponseService </title>
<polygon fill="#fb8072" stroke="black" points="200.03,-214.8 59.97,-214.8 59.97,-178.8 200.03,-178.8 200.03,-214.8"/>
<text text-anchor="middle" x="130" y="-192.6" font-family="Times,serif" font-size="14.00">HttpResponseService </text>
</g>
<!-- HttpResponseModule&#45;&gt;HttpResponseService  -->
<g id="edge6" class="edge">
<title>HttpResponseModule&#45;&gt;HttpResponseService </title>
<path fill="none" stroke="black" stroke-dasharray="5,2" d="M130,-149.91C130,-149.91 130,-168.79 130,-168.79"/>
<polygon fill="black" stroke="black" points="126.5,-168.79 130,-178.79 133.5,-168.79 126.5,-168.79"/>
</g>
<!-- LoggerModule -->
<g id="node4" class="node">
<title>LoggerModule</title>
<polygon fill="#8dd3c7" stroke="black" points="708.98,-149.8 705.98,-153.8 684.98,-153.8 681.98,-149.8 609.02,-149.8 609.02,-113.8 708.98,-113.8 708.98,-149.8"/>
<text text-anchor="middle" x="659" y="-127.6" font-family="Times,serif" font-size="14.00">LoggerModule</text>
</g>
<!-- LoggerModule&#45;&gt;CommonModule -->
<g id="edge3" class="edge">
<title>LoggerModule&#45;&gt;CommonModule</title>
<path fill="none" stroke="black" d="M608.99,-137.8C570.06,-137.8 522.61,-137.8 522.61,-137.8 522.61,-137.8 522.61,-168.78 522.61,-168.78"/>
<polygon fill="black" stroke="black" points="519.11,-168.78 522.61,-178.78 526.11,-168.78 519.11,-168.78"/>
</g>
<!-- LoggerService  -->
<g id="node12" class="node">
<title>LoggerService </title>
<polygon fill="#fb8072" stroke="black" points="709.91,-214.8 608.09,-214.8 608.09,-178.8 709.91,-178.8 709.91,-214.8"/>
<text text-anchor="middle" x="659" y="-192.6" font-family="Times,serif" font-size="14.00">LoggerService </text>
</g>
<!-- LoggerModule&#45;&gt;LoggerService  -->
<g id="edge11" class="edge">
<title>LoggerModule&#45;&gt;LoggerService </title>
<path fill="none" stroke="black" stroke-dasharray="5,2" d="M659,-149.91C659,-149.91 659,-168.79 659,-168.79"/>
<polygon fill="black" stroke="black" points="655.5,-168.79 659,-178.79 662.5,-168.79 655.5,-168.79"/>
</g>
<!-- HttpResponseService -->
<g id="node8" class="node">
<title>HttpResponseService</title>
<ellipse fill="#fdb462" stroke="black" cx="118" cy="-66.8" rx="94.35" ry="18"/>
<text text-anchor="middle" x="118" y="-62.6" font-family="Times,serif" font-size="14.00">HttpResponseService</text>
</g>
<!-- HttpResponseService&#45;&gt;HttpResponseModule -->
<g id="edge7" class="edge">
<title>HttpResponseService&#45;&gt;HttpResponseModule</title>
<path fill="none" stroke="black" d="M130,-84.91C130,-84.91 130,-103.79 130,-103.79"/>
<polygon fill="black" stroke="black" points="126.5,-103.79 130,-113.79 133.5,-103.79 126.5,-103.79"/>
</g>
<!-- IntersectionService  -->
<g id="node10" class="node">
<title>IntersectionService </title>
<polygon fill="#fb8072" stroke="black" points="480.56,-358.8 353.44,-358.8 353.44,-322.8 480.56,-322.8 480.56,-358.8"/>
<text text-anchor="middle" x="417" y="-336.6" font-family="Times,serif" font-size="14.00">IntersectionService </text>
</g>
<!-- IntersectionModule&#45;&gt;IntersectionService  -->
<g id="edge9" class="edge">
<title>IntersectionModule&#45;&gt;IntersectionService </title>
<path fill="none" stroke="black" stroke-dasharray="5,2" d="M417,-291.02C417,-291.02 417,-312.53 417,-312.53"/>
<polygon fill="black" stroke="black" points="413.5,-312.53 417,-322.53 420.5,-312.53 413.5,-312.53"/>
</g>
<!-- IntersectionService -->
<g id="node11" class="node">
<title>IntersectionService</title>
<ellipse fill="#fdb462" stroke="black" cx="338" cy="-196.8" rx="85.65" ry="18"/>
<text text-anchor="middle" x="338" y="-192.6" font-family="Times,serif" font-size="14.00">IntersectionService</text>
</g>
<!-- IntersectionService&#45;&gt;IntersectionModule -->
<g id="edge10" class="edge">
<title>IntersectionService&#45;&gt;IntersectionModule</title>
<path fill="none" stroke="black" d="M388.88,-211.45C388.88,-211.45 388.88,-244.7 388.88,-244.7"/>
<polygon fill="black" stroke="black" points="385.38,-244.7 388.88,-254.7 392.38,-244.7 385.38,-244.7"/>
</g>
<!-- LoggerService -->
<g id="node13" class="node">
<title>LoggerService</title>
<ellipse fill="#fdb462" stroke="black" cx="668" cy="-66.8" rx="67.76" ry="18"/>
<text text-anchor="middle" x="668" y="-62.6" font-family="Times,serif" font-size="14.00">LoggerService</text>
</g>
<!-- LoggerService&#45;&gt;LoggerModule -->
<g id="edge12" class="edge">
<title>LoggerService&#45;&gt;LoggerModule</title>
<path fill="none" stroke="black" d="M659,-84.91C659,-84.91 659,-103.79 659,-103.79"/>
<polygon fill="black" stroke="black" points="655.5,-103.79 659,-113.79 662.5,-103.79 655.5,-103.79"/>
</g>
</g>
</svg>
