<?xml version="1.0" encoding="UTF-8" standalone="no"?>
<!DOCTYPE svg PUBLIC "-//W3C//DTD SVG 1.1//EN"
 "http://www.w3.org/Graphics/SVG/1.1/DTD/svg11.dtd">
<!-- Generated by graphviz version 3.0.0 (20220226.1711)
 -->
<!-- Title: dependencies Pages: 1 -->
<svg width="1108pt" height="399pt"
 viewBox="0.00 0.00 1108.00 398.80" xmlns="http://www.w3.org/2000/svg" xmlns:xlink="http://www.w3.org/1999/xlink">
<g id="graph0" class="graph" transform="scale(1 1) rotate(0) translate(4 394.8)">
<title>dependencies</title>
<polygon fill="white" stroke="transparent" points="-4,4 -4,-394.8 1104,-394.8 1104,4 -4,4"/>
<text text-anchor="middle" x="550" y="-8.2" font-family="sans-serif" font-size="14.00">dependencies</text>
<g id="clust13" class="cluster">
<title>cluster_HttpResponseModule</title>
<polygon fill="none" stroke="black" stroke-dasharray="1,5" points="220,-32.8 220,-230.8 440,-230.8 440,-32.8 220,-32.8"/>
</g>
<g id="clust16" class="cluster">
<title>cluster_HttpResponseModule_exports</title>
<polygon fill="none" stroke="black" points="264,-170.8 264,-222.8 420,-222.8 420,-170.8 264,-170.8"/>
</g>
<g id="clust18" class="cluster">
<title>cluster_HttpResponseModule_providers</title>
<polygon fill="none" stroke="black" points="228,-40.8 228,-92.8 432,-92.8 432,-40.8 228,-40.8"/>
</g>
<g id="clust1" class="cluster">
<title>cluster_AppModule</title>
<polygon fill="none" stroke="black" stroke-dasharray="1,5" points="448,-162.8 448,-298.8 592,-298.8 592,-162.8 448,-162.8"/>
</g>
<g id="clust3" class="cluster">
<title>cluster_AppModule_imports</title>
<polygon fill="none" stroke="black" points="456,-170.8 456,-222.8 584,-222.8 584,-170.8 456,-170.8"/>
</g>
<g id="clust7" class="cluster">
<title>cluster_CommonModule</title>
<polygon fill="none" stroke="black" stroke-dasharray="1,5" points="600,-238.8 600,-306.8 1020,-306.8 1020,-238.8 600,-238.8"/>
</g>
<g id="clust9" class="cluster">
<title>cluster_CommonModule_imports</title>
<polygon fill="none" stroke="black" points="896,-246.8 896,-298.8 1012,-298.8 1012,-246.8 896,-246.8"/>
</g>
<g id="clust10" class="cluster">
<title>cluster_CommonModule_exports</title>
<polygon fill="none" stroke="black" points="608,-246.8 608,-298.8 888,-298.8 888,-246.8 608,-246.8"/>
</g>
<g id="clust19" class="cluster">
<title>cluster_IntersectionModule</title>
<polygon fill="none" stroke="black" stroke-dasharray="1,5" points="8,-162.8 8,-382.8 212,-382.8 212,-162.8 8,-162.8"/>
</g>
<g id="clust22" class="cluster">
<title>cluster_IntersectionModule_exports</title>
<polygon fill="none" stroke="black" points="49,-322.8 49,-374.8 193,-374.8 193,-322.8 49,-322.8"/>
</g>
<g id="clust24" class="cluster">
<title>cluster_IntersectionModule_providers</title>
<polygon fill="none" stroke="black" points="16,-170.8 16,-222.8 204,-222.8 204,-170.8 16,-170.8"/>
</g>
<g id="clust25" class="cluster">
<title>cluster_LoggerModule</title>
<polygon fill="none" stroke="black" stroke-dasharray="1,5" points="798,-314.8 798,-382.8 1092,-382.8 1092,-314.8 798,-314.8"/>
</g>
<g id="clust28" class="cluster">
<title>cluster_LoggerModule_exports</title>
<polygon fill="none" stroke="black" points="966,-322.8 966,-374.8 1084,-374.8 1084,-322.8 966,-322.8"/>
</g>
<g id="clust30" class="cluster">
<title>cluster_LoggerModule_providers</title>
<polygon fill="none" stroke="black" points="806,-322.8 806,-374.8 958,-374.8 958,-322.8 806,-322.8"/>
</g>
<!-- CommonModule -->
<g id="node1" class="node">
<title>CommonModule</title>
<polygon fill="#8dd3c7" stroke="black" points="575.67,-214.8 572.67,-218.8 551.67,-218.8 548.67,-214.8 464.33,-214.8 464.33,-178.8 575.67,-178.8 575.67,-214.8"/>
<text text-anchor="middle" x="520" y="-192.6" font-family="Times,serif" font-size="14.00">CommonModule</text>
</g>
<!-- AppModule -->
<g id="node2" class="node">
<title>AppModule</title>
<polygon fill="#8dd3c7" stroke="black" points="561.66,-290.8 558.66,-294.8 537.66,-294.8 534.66,-290.8 478.34,-290.8 478.34,-254.8 561.66,-254.8 561.66,-290.8"/>
<text text-anchor="middle" x="520" y="-268.6" font-family="Times,serif" font-size="14.00">AppModule</text>
</g>
<!-- CommonModule&#45;&gt;AppModule -->
<g id="edge1" class="edge">
<title>CommonModule&#45;&gt;AppModule</title>
<path fill="none" stroke="black" d="M520,-214.81C520,-214.81 520,-244.65 520,-244.65"/>
<polygon fill="black" stroke="black" points="516.5,-244.65 520,-254.65 523.5,-244.65 516.5,-244.65"/>
</g>
<!-- HttpResponseModule  -->
<g id="node5" class="node">
<title>HttpResponseModule </title>
<polygon fill="#fb8072" stroke="black" points="879.6,-290.8 738.4,-290.8 738.4,-254.8 879.6,-254.8 879.6,-290.8"/>
<text text-anchor="middle" x="809" y="-268.6" font-family="Times,serif" font-size="14.00">HttpResponseModule </text>
</g>
<!-- CommonModule&#45;&gt;HttpResponseModule  -->
<g id="edge4" class="edge">
<title>CommonModule&#45;&gt;HttpResponseModule </title>
<path fill="none" stroke="black" stroke-dasharray="5,2" d="M575.72,-202.8C659.7,-202.8 809,-202.8 809,-202.8 809,-202.8 809,-244.77 809,-244.77"/>
<polygon fill="black" stroke="black" points="805.5,-244.77 809,-254.77 812.5,-244.77 805.5,-244.77"/>
</g>
<!-- LoggerModule  -->
<g id="node6" class="node">
<title>LoggerModule </title>
<polygon fill="#fb8072" stroke="black" points="719.98,-290.8 616.02,-290.8 616.02,-254.8 719.98,-254.8 719.98,-290.8"/>
<text text-anchor="middle" x="668" y="-268.6" font-family="Times,serif" font-size="14.00">LoggerModule </text>
</g>
<!-- CommonModule&#45;&gt;LoggerModule  -->
<g id="edge5" class="edge">
<title>CommonModule&#45;&gt;LoggerModule </title>
<path fill="none" stroke="black" stroke-dasharray="5,2" d="M568.83,-214.81C568.83,-237.29 568.83,-272.8 568.83,-272.8 568.83,-272.8 606.09,-272.8 606.09,-272.8"/>
<polygon fill="black" stroke="black" points="606.09,-276.3 616.09,-272.8 606.09,-269.3 606.09,-276.3"/>
</g>
<!-- IntersectionModule -->
<g id="node9" class="node">
<title>IntersectionModule</title>
<polygon fill="#8dd3c7" stroke="black" points="183.64,-290.8 180.64,-294.8 159.64,-294.8 156.64,-290.8 58.36,-290.8 58.36,-254.8 183.64,-254.8 183.64,-290.8"/>
<text text-anchor="middle" x="121" y="-268.6" font-family="Times,serif" font-size="14.00">IntersectionModule</text>
</g>
<!-- CommonModule&#45;&gt;IntersectionModule -->
<g id="edge8" class="edge">
<title>CommonModule&#45;&gt;IntersectionModule</title>
<path fill="none" stroke="black" d="M471.17,-214.81C471.17,-237.29 471.17,-272.8 471.17,-272.8 471.17,-272.8 194.01,-272.8 194.01,-272.8"/>
<polygon fill="black" stroke="black" points="194.01,-269.3 184.01,-272.8 194.01,-276.3 194.01,-269.3"/>
</g>
<!-- HttpResponseModule -->
<g id="node3" class="node">
<title>HttpResponseModule</title>
<polygon fill="#8dd3c7" stroke="black" points="411.1,-149.8 408.1,-153.8 387.1,-153.8 384.1,-149.8 272.9,-149.8 272.9,-113.8 411.1,-113.8 411.1,-149.8"/>
<text text-anchor="middle" x="342" y="-127.6" font-family="Times,serif" font-size="14.00">HttpResponseModule</text>
</g>
<!-- HttpResponseModule&#45;&gt;CommonModule -->
<g id="edge2" class="edge">
<title>HttpResponseModule&#45;&gt;CommonModule</title>
<path fill="none" stroke="black" d="M411.07,-131.8C461.11,-131.8 520,-131.8 520,-131.8 520,-131.8 520,-168.69 520,-168.69"/>
<polygon fill="black" stroke="black" points="516.5,-168.69 520,-178.69 523.5,-168.69 516.5,-168.69"/>
</g>
<!-- HttpResponseService  -->
<g id="node7" class="node">
<title>HttpResponseService </title>
<polygon fill="#fb8072" stroke="black" points="412.03,-214.8 271.97,-214.8 271.97,-178.8 412.03,-178.8 412.03,-214.8"/>
<text text-anchor="middle" x="342" y="-192.6" font-family="Times,serif" font-size="14.00">HttpResponseService </text>
</g>
<!-- HttpResponseModule&#45;&gt;HttpResponseService  -->
<g id="edge6" class="edge">
<title>HttpResponseModule&#45;&gt;HttpResponseService </title>
<path fill="none" stroke="black" stroke-dasharray="5,2" d="M342,-149.91C342,-149.91 342,-168.79 342,-168.79"/>
<polygon fill="black" stroke="black" points="338.5,-168.79 342,-178.79 345.5,-168.79 338.5,-168.79"/>
</g>
<!-- LoggerModule -->
<g id="node4" class="node">
<title>LoggerModule</title>
<polygon fill="#8dd3c7" stroke="black" points="1003.98,-290.8 1000.98,-294.8 979.98,-294.8 976.98,-290.8 904.02,-290.8 904.02,-254.8 1003.98,-254.8 1003.98,-290.8"/>
<text text-anchor="middle" x="954" y="-268.6" font-family="Times,serif" font-size="14.00">LoggerModule</text>
</g>
<!-- LoggerModule&#45;&gt;CommonModule -->
<g id="edge3" class="edge">
<title>LoggerModule&#45;&gt;CommonModule</title>
<path fill="none" stroke="black" d="M954,-254.6C954,-230.44 954,-190.8 954,-190.8 954,-190.8 585.85,-190.8 585.85,-190.8"/>
<polygon fill="black" stroke="black" points="585.85,-187.3 575.85,-190.8 585.85,-194.3 585.85,-187.3"/>
</g>
<!-- LoggerService  -->
<g id="node12" class="node">
<title>LoggerService </title>
<polygon fill="#fb8072" stroke="black" points="1075.91,-366.8 974.09,-366.8 974.09,-330.8 1075.91,-330.8 1075.91,-366.8"/>
<text text-anchor="middle" x="1025" y="-344.6" font-family="Times,serif" font-size="14.00">LoggerService </text>
</g>
<!-- LoggerModule&#45;&gt;LoggerService  -->
<g id="edge11" class="edge">
<title>LoggerModule&#45;&gt;LoggerService </title>
<path fill="none" stroke="black" stroke-dasharray="5,2" d="M989.02,-290.81C989.02,-290.81 989.02,-320.65 989.02,-320.65"/>
<polygon fill="black" stroke="black" points="985.52,-320.65 989.02,-330.65 992.52,-320.65 985.52,-320.65"/>
</g>
<!-- HttpResponseService -->
<g id="node8" class="node">
<title>HttpResponseService</title>
<ellipse fill="#fdb462" stroke="black" cx="330" cy="-66.8" rx="94.35" ry="18"/>
<text text-anchor="middle" x="330" y="-62.6" font-family="Times,serif" font-size="14.00">HttpResponseService</text>
</g>
<!-- HttpResponseService&#45;&gt;HttpResponseModule -->
<g id="edge7" class="edge">
<title>HttpResponseService&#45;&gt;HttpResponseModule</title>
<path fill="none" stroke="black" d="M342,-84.91C342,-84.91 342,-103.79 342,-103.79"/>
<polygon fill="black" stroke="black" points="338.5,-103.79 342,-113.79 345.5,-103.79 338.5,-103.79"/>
</g>
<!-- IntersectionService  -->
<g id="node10" class="node">
<title>IntersectionService </title>
<polygon fill="#fb8072" stroke="black" points="184.56,-366.8 57.44,-366.8 57.44,-330.8 184.56,-330.8 184.56,-366.8"/>
<text text-anchor="middle" x="121" y="-344.6" font-family="Times,serif" font-size="14.00">IntersectionService </text>
</g>
<!-- IntersectionModule&#45;&gt;IntersectionService  -->
<g id="edge9" class="edge">
<title>IntersectionModule&#45;&gt;IntersectionService </title>
<path fill="none" stroke="black" stroke-dasharray="5,2" d="M121,-290.81C121,-290.81 121,-320.65 121,-320.65"/>
<polygon fill="black" stroke="black" points="117.5,-320.65 121,-330.65 124.5,-320.65 117.5,-320.65"/>
</g>
<!-- IntersectionService -->
<g id="node11" class="node">
<title>IntersectionService</title>
<ellipse fill="#fdb462" stroke="black" cx="110" cy="-196.8" rx="85.65" ry="18"/>
<text text-anchor="middle" x="110" y="-192.6" font-family="Times,serif" font-size="14.00">IntersectionService</text>
</g>
<!-- IntersectionService&#45;&gt;IntersectionModule -->
<g id="edge10" class="edge">
<title>IntersectionService&#45;&gt;IntersectionModule</title>
<path fill="none" stroke="black" d="M121,-214.81C121,-214.81 121,-244.65 121,-244.65"/>
<polygon fill="black" stroke="black" points="117.5,-244.65 121,-254.65 124.5,-244.65 117.5,-244.65"/>
</g>
<!-- LoggerService -->
<g id="node13" class="node">
<title>LoggerService</title>
<ellipse fill="#fdb462" stroke="black" cx="882" cy="-348.8" rx="67.76" ry="18"/>
<text text-anchor="middle" x="882" y="-344.6" font-family="Times,serif" font-size="14.00">LoggerService</text>
</g>
<!-- LoggerService&#45;&gt;LoggerModule -->
<g id="edge12" class="edge">
<title>LoggerService&#45;&gt;LoggerModule</title>
<path fill="none" stroke="black" d="M926.94,-335.21C926.94,-335.21 926.94,-300.84 926.94,-300.84"/>
<polygon fill="black" stroke="black" points="930.44,-300.84 926.94,-290.84 923.44,-300.84 930.44,-300.84"/>
</g>
</g>
</svg>
